<svg width="29" height="28" viewBox="0 0 29 28" fill="none" xmlns="http://www.w3.org/2000/svg">
<path d="M25 13.7084H4.00004C2.88004 13.7084 1.95837 12.7867 1.95837 11.6667V7.79336C1.95837 7.00003 2.50668 6.19503 3.24168 5.90336L13.7417 1.70339C14.185 1.52839 14.8151 1.52839 15.2584 1.70339L25.7584 5.90336C26.4934 6.19503 27.0417 7.01169 27.0417 7.79336V11.6667C27.0417 12.7867 26.12 13.7084 25 13.7084ZM14.5 3.3134C14.4534 3.3134 14.4067 3.31334 14.3834 3.32501L3.89501 7.52505C3.82501 7.56005 3.70837 7.71169 3.70837 7.79336V11.6667C3.70837 11.83 3.83671 11.9584 4.00004 11.9584H25C25.1634 11.9584 25.2917 11.83 25.2917 11.6667V7.79336C25.2917 7.71169 25.1867 7.56005 25.1051 7.52505L14.6051 3.32501C14.5817 3.31334 14.5467 3.3134 14.5 3.3134Z" fill="#1C2C56"/>
<path d="M26.1667 26.5417H2.83337C2.35504 26.5417 1.95837 26.145 1.95837 25.6667V22.1667C1.95837 21.0467 2.88004 20.125 4.00004 20.125H25C26.12 20.125 27.0417 21.0467 27.0417 22.1667V25.6667C27.0417 26.145 26.645 26.5417 26.1667 26.5417ZM3.70837 24.7917H25.2917V22.1667C25.2917 22.0033 25.1634 21.875 25 21.875H4.00004C3.83671 21.875 3.70837 22.0033 3.70837 22.1667V24.7917Z" fill="#1C2C56"/>
<path d="M5.16663 21.875C4.68829 21.875 4.29163 21.4783 4.29163 21V12.8333C4.29163 12.355 4.68829 11.9583 5.16663 11.9583C5.64496 11.9583 6.04163 12.355 6.04163 12.8333V21C6.04163 21.4783 5.64496 21.875 5.16663 21.875Z" fill="#1C2C56"/>
<path d="M9.83337 21.875C9.35504 21.875 8.95837 21.4783 8.95837 21V12.8333C8.95837 12.355 9.35504 11.9583 9.83337 11.9583C10.3117 11.9583 10.7084 12.355 10.7084 12.8333V21C10.7084 21.4783 10.3117 21.875 9.83337 21.875Z" fill="#1C2C56"/>
<path d="M14.5 21.875C14.0217 21.875 13.625 21.4783 13.625 21V12.8333C13.625 12.355 14.0217 11.9583 14.5 11.9583C14.9783 11.9583 15.375 12.355 15.375 12.8333V21C15.375 21.4783 14.9783 21.875 14.5 21.875Z" fill="#1C2C56"/>
<path d="M19.1666 21.875C18.6883 21.875 18.2916 21.4783 18.2916 21V12.8333C18.2916 12.355 18.6883 11.9583 19.1666 11.9583C19.645 11.9583 20.0416 12.355 20.0416 12.8333V21C20.0416 21.4783 19.645 21.875 19.1666 21.875Z" fill="#1C2C56"/>
<path d="M23.8334 21.875C23.355 21.875 22.9584 21.4783 22.9584 21V12.8333C22.9584 12.355 23.355 11.9583 23.8334 11.9583C24.3117 11.9583 24.7084 12.355 24.7084 12.8333V21C24.7084 21.4783 24.3117 21.875 23.8334 21.875Z" fill="#1C2C56"/>
<path d="M27.3333 26.5416H1.66663C1.18829 26.5416 0.791626 26.145 0.791626 25.6666C0.791626 25.1883 1.18829 24.7916 1.66663 24.7916H27.3333C27.8116 24.7916 28.2083 25.1883 28.2083 25.6666C28.2083 26.145 27.8116 26.5416 27.3333 26.5416Z" fill="#1C2C56"/>
<path d="M14.5 10.7917C13.0533 10.7917 11.875 9.61335 11.875 8.16669C11.875 6.72002 13.0533 5.54169 14.5 5.54169C15.9467 5.54169 17.125 6.72002 17.125 8.16669C17.125 9.61335 15.9467 10.7917 14.5 10.7917ZM14.5 7.29169C14.0217 7.29169 13.625 7.68835 13.625 8.16669C13.625 8.64502 14.0217 9.04169 14.5 9.04169C14.9783 9.04169 15.375 8.64502 15.375 8.16669C15.375 7.68835 14.9783 7.29169 14.5 7.29169Z" fill="#1C2C56"/>
</svg>
