<svg width="29" height="28" viewBox="0 0 29 28" fill="none" xmlns="http://www.w3.org/2000/svg">
<path d="M26.1666 10.7916H2.83331C2.35498 10.7916 1.95831 10.395 1.95831 9.91663C1.95831 9.43829 2.35498 9.04163 2.83331 9.04163H26.1666C26.645 9.04163 27.0416 9.43829 27.0416 9.91663C27.0416 10.395 26.645 10.7916 26.1666 10.7916Z" fill="#1C2C56"/>
<path d="M9.83333 20.125H7.5C7.02167 20.125 6.625 19.7283 6.625 19.25C6.625 18.7717 7.02167 18.375 7.5 18.375H9.83333C10.3117 18.375 10.7083 18.7717 10.7083 19.25C10.7083 19.7283 10.3117 20.125 9.83333 20.125Z" fill="#1C2C56"/>
<path d="M17.4167 20.125H12.75C12.2717 20.125 11.875 19.7283 11.875 19.25C11.875 18.7717 12.2717 18.375 12.75 18.375H17.4167C17.895 18.375 18.2917 18.7717 18.2917 19.25C18.2917 19.7283 17.895 20.125 17.4167 20.125Z" fill="#1C2C56"/>
<path d="M20.9866 24.7917H8.01331C3.36998 24.7917 1.95831 23.3917 1.95831 18.795V9.20504C1.95831 4.60837 3.36998 3.20837 8.01331 3.20837H20.975C25.6183 3.20837 27.03 4.60837 27.03 9.20504V18.7834C27.0416 23.3917 25.63 24.7917 20.9866 24.7917ZM8.01331 4.95837C4.34998 4.95837 3.70831 5.58837 3.70831 9.20504V18.7834C3.70831 22.4 4.34998 23.03 8.01331 23.03H20.975C24.6383 23.03 25.28 22.4 25.28 18.7834V9.20504C25.28 5.58837 24.6383 4.95837 20.975 4.95837H8.01331Z" fill="#1C2C56"/>
</svg>
