<svg width="31" height="25" viewBox="0 0 31 25" fill="none" xmlns="http://www.w3.org/2000/svg">
<path d="M27 3.09375H3.375C2.90039 3.09375 2.53125 3.51562 2.53125 3.9375V5.625H27.8438V3.9375C27.8438 3.51562 27.4219 3.09375 27 3.09375ZM27.8438 10.6875H2.53125V20.8125C2.53125 21.2871 2.90039 21.6562 3.375 21.6562H27C27.4219 21.6562 27.8438 21.2871 27.8438 20.8125V10.6875ZM3.375 0.5625H27C28.8457 0.5625 30.375 2.0918 30.375 3.9375V20.8125C30.375 22.7109 28.8457 24.1875 27 24.1875H3.375C1.47656 24.1875 0 22.7109 0 20.8125V3.9375C0 2.0918 1.47656 0.5625 3.375 0.5625ZM6.32812 16.5938H8.85938C9.54492 16.5938 10.125 17.1738 10.125 17.8594C10.125 18.5977 9.54492 19.125 8.85938 19.125H6.32812C5.58984 19.125 5.0625 18.5977 5.0625 17.8594C5.0625 17.1738 5.58984 16.5938 6.32812 16.5938ZM13.0781 16.5938H18.9844C19.6699 16.5938 20.25 17.1738 20.25 17.8594C20.25 18.5977 19.6699 19.125 18.9844 19.125H13.0781C12.3398 19.125 11.8125 18.5977 11.8125 17.8594C11.8125 17.1738 12.3398 16.5938 13.0781 16.5938Z" fill="#495678"/>
</svg>
