<svg width="43" height="46" viewBox="0 0 43 46" fill="none" xmlns="http://www.w3.org/2000/svg">
<path d="M21.0386 45.1827C20.6063 45.0602 20.5923 45.0337 20.5923 44.3299C20.5923 43.6176 20.5836 43.6018 20.1462 43.5185C19.3299 43.3633 17.9232 42.733 17.2662 42.2278C14.8458 40.3674 14.0165 37.4581 15.1063 34.652C15.803 32.8575 17.7256 31.2533 19.8048 30.7311C20.8094 30.479 20.7619 30.1967 19.6999 30.1099L18.8762 30.0425V28.6954L19.7341 28.6553L20.5923 28.6152V25.1861C20.5923 23.3002 20.5634 21.757 20.5285 21.757C20.4932 21.757 19.4579 22.5604 18.2274 23.5421C16.997 24.5239 15.821 25.4571 15.6141 25.6161C15.4072 25.775 15.2387 25.9569 15.2398 26.0202C15.241 26.0837 15.4512 26.378 15.7073 26.6744C16.1589 27.1976 16.1662 27.2242 15.9524 27.58C15.8315 27.7817 15.5621 28.005 15.3543 28.0759C15.0076 28.1945 14.9305 28.1527 14.4306 27.5746C14.0376 27.1202 13.8429 26.9844 13.7338 27.0889C13.624 27.1945 13.7031 27.487 14.0219 28.1555C14.4028 28.9541 14.4695 29.2598 14.5237 30.456C14.5751 31.5915 14.5355 31.998 14.2999 32.7576C13.6518 34.8456 12.1004 36.3677 9.97209 37.0036C9.19863 37.2348 8.79523 37.2727 7.7066 37.2172C6.19169 37.1398 5.31776 36.8525 4.084 36.0264C3.6506 35.7361 3.2492 35.5013 3.19164 35.5043C3.13407 35.5073 2.87714 35.686 2.62043 35.9013C2.17858 36.2721 2.13257 36.2825 1.76473 36.0958C1.38645 35.9039 0.959045 35.2871 0.959045 34.933C0.959045 34.8365 1.18731 34.5698 1.46624 34.34L1.97366 33.9219L1.60782 33.0941C-1.60933e-06 29.4562 1.6376 25.4836 5.29398 24.1514C5.95631 23.9101 6.37549 23.8578 7.54924 23.8704C9.24597 23.8884 10.0783 24.1423 11.4948 25.0744C12.6156 25.8116 12.893 25.6887 12.1407 24.7878C11.6315 24.1776 11.6235 24.1516 11.8379 23.8012C11.9593 23.6031 12.2251 23.3815 12.4287 23.3084C12.7674 23.187 12.8477 23.2303 13.3664 23.8127L13.9334 24.4495L16.8854 22.1003C18.5088 20.8082 19.837 19.6879 19.837 19.6105C19.837 19.5333 18.5397 18.4429 16.9541 17.1875L14.0708 14.905L13.6931 15.2575C13.2082 15.7107 13.2166 15.9763 13.7276 16.3468C14.2303 16.7118 14.2337 16.7766 13.7769 17.3091L13.4147 17.7319L12.981 17.3195C12.4627 16.8265 12.4063 16.8197 12.0653 17.2102C11.509 17.8477 11.5048 17.9329 12.0138 18.2729C12.2758 18.4479 12.4905 18.6588 12.4909 18.7412C12.4921 18.9175 11.9657 19.602 11.8297 19.6011C11.705 19.6003 9.13906 17.5879 9.08772 17.4503C9.06549 17.3908 9.69849 16.9921 10.4948 16.5641C11.2912 16.1363 11.9426 15.7395 11.9426 15.6823C11.9426 15.625 11.7642 15.4535 11.5459 15.3011L11.1492 15.0238L9.81117 15.7675C9.07505 16.1764 8.45028 16.4889 8.4225 16.4618C8.39494 16.4347 8.58186 15.7651 8.83768 14.9737L9.30309 13.5346L8.95214 13.2638C8.75922 13.1149 8.54252 13.0123 8.47073 13.0357C8.39872 13.0591 8.12889 13.74 7.87107 14.5485C7.61325 15.3573 7.37766 16.0426 7.34765 16.0721C7.29209 16.1263 4.52874 13.9494 4.52874 13.8514C4.52874 13.7226 5.14107 13.0002 5.2502 13.0002C5.31665 13.0002 5.58803 13.1628 5.85319 13.3612L6.33549 13.7222L6.73644 13.3011C6.95692 13.0695 7.1374 12.8378 7.1374 12.7859C7.1374 12.7341 6.90847 12.4978 6.62887 12.2606L6.12034 11.8291L6.45728 11.4117C6.87024 10.9 6.92625 10.8946 7.437 11.3163C7.66148 11.5015 7.89174 11.653 7.94909 11.653C8.08155 11.653 8.787 10.8809 8.77878 10.7448C8.77522 10.6884 8.25291 10.2485 7.61792 9.76689C6.33282 8.79227 6.23169 8.56135 6.80001 7.8983C7.51346 7.06635 6.83601 6.63422 14.9631 13.1032C19.3567 16.6001 20.4374 17.4461 20.5114 17.4461C20.5558 17.4461 20.5923 15.9002 20.5923 14.0106V10.5752H19.2194V11.9223H17.9836V10.5752H16.6107V11.9223H15.375V8.2888L16.0273 8.5414C16.386 8.68017 17.0764 8.95207 17.5611 9.14569C18.0459 9.33931 18.4942 9.49738 18.5566 9.49738C18.6191 9.49738 18.67 9.27015 18.6693 8.99218L18.6684 8.48698L17.1399 7.89483L15.6112 7.30247L17.1408 6.70187L18.6702 6.10127V5.57655C18.6702 5.28774 18.6406 5.05162 18.6044 5.05162C18.5682 5.05162 17.9038 5.30075 17.1286 5.60517L15.5468 6.22594C15.4145 6.27754 15.3752 5.8723 15.3752 4.45969V2.62667H16.611V3.97379H17.9836V2.62667H19.2194V3.97379H20.5923V0.885571L21.1213 0.745936C21.4947 0.647281 21.7778 0.649666 22.0825 0.753742L22.5146 0.901616V9.18819C22.5146 16.1959 22.5439 17.4637 22.7049 17.4032C22.8735 17.3397 26.6233 14.3887 33.0892 9.23047C34.2614 8.29552 35.2969 7.48417 35.3903 7.42736C35.6516 7.26908 36.0724 7.45446 36.3598 7.85515C36.9305 8.65046 36.9019 8.72375 35.6316 9.71485C34.9869 10.2179 34.4592 10.6804 34.4592 10.7426C34.4592 10.9152 35.0438 11.653 35.1807 11.653C35.2471 11.653 35.5203 11.4891 35.7879 11.2888L36.2744 10.9247L36.6634 11.3898L37.0528 11.8551L36.5118 12.3265L35.9708 12.7981L36.4 13.2578C36.6938 13.5726 36.8823 13.6788 36.9979 13.5947C37.9267 12.9182 37.8822 12.9293 38.2359 13.2818C38.4148 13.4605 38.5804 13.6764 38.6039 13.7617C38.6508 13.9321 35.979 16.1207 35.8328 16.0318C35.7828 16.0014 35.5363 15.307 35.2849 14.4884C35.0336 13.6699 34.7604 13.0021 34.6779 13.0047C34.5955 13.0071 34.3846 13.1261 34.2096 13.2695L33.8911 13.5299L34.365 15.0164C34.6257 15.8338 34.8091 16.503 34.7726 16.503C34.7362 16.503 34.0894 16.1632 33.3353 15.748L31.9644 14.9928L31.5652 15.3679L31.166 15.7432L32.0233 16.2081C32.4945 16.4639 33.1792 16.8382 33.5449 17.04L34.2092 17.4071L32.7763 18.5552L31.3432 19.7033L30.9591 19.231L30.575 18.7586L31.0996 18.3264L31.6241 17.8943L31.2407 17.4008C31.0296 17.1294 30.8269 16.9071 30.79 16.9071C30.7533 16.9071 30.4895 17.0886 30.2041 17.3104L29.6851 17.7137L29.3131 17.235L28.9408 16.7562L29.4595 16.3161L29.9783 15.8761L29.5789 15.3852C29.2375 14.9652 29.1455 14.918 28.9432 15.0587C28.3611 15.4635 23.2156 19.5415 23.2089 19.6033C23.2045 19.6415 23.5563 19.9446 23.9904 20.277C24.4247 20.6094 25.786 21.6846 27.0156 22.6664C28.2451 23.6482 29.2764 24.4515 29.3068 24.4515C29.3373 24.4515 29.562 24.1787 29.806 23.8453C30.3308 23.128 30.6182 23.0868 31.1891 23.6471L31.605 24.0551L31.244 24.4892C30.7753 25.0521 30.5455 25.5061 30.6679 25.6262C30.7215 25.6787 30.8442 25.6633 30.9407 25.592C31.8535 24.9149 32.9597 24.2947 33.5437 24.1328C36.9336 23.1931 40.0155 24.4537 41.4962 27.3853L42.0792 28.5404V30.2344C42.0792 31.9846 42.0687 32.0291 41.2441 33.82C41.2086 33.897 41.4288 34.1394 41.7335 34.3588C42.1934 34.6901 42.2736 34.815 42.2074 35.0945C42.1212 35.4577 41.6795 35.9833 41.2855 36.1916C41.0945 36.2927 40.9187 36.2185 40.4836 35.8527L39.9261 35.3844L39.3 35.8534C38.0172 36.8144 36.6914 37.2523 35.0824 37.2469C33.179 37.2404 31.7997 36.6903 30.5461 35.4384C29.5726 34.4655 29.0515 33.5724 28.7672 32.3885C28.4036 30.8751 28.5398 29.536 29.2084 28.0495C29.4689 27.4703 29.5195 27.2299 29.4046 27.1171C29.2897 27.0044 29.1824 27.0493 28.9877 27.2912C28.1475 28.3359 28.2402 28.2797 27.7619 28.0371C27.5232 27.9159 27.26 27.6921 27.1769 27.5397C27.0196 27.2513 27.0536 27.1755 27.7263 26.3205L28.0046 25.9667L25.3993 23.8964C23.9664 22.7577 22.73 21.8052 22.652 21.7796C22.5557 21.7481 22.5217 22.8372 22.5464 25.1469L22.5831 28.5605L23.4036 28.6017C24.2922 28.6466 24.4325 28.7513 24.4325 29.3688C24.4325 29.9866 24.2922 30.0911 23.4036 30.136C22.2334 30.1949 22.3181 30.4692 23.6203 30.8376C25.3511 31.3276 26.5837 32.214 27.5643 33.6743C28.749 35.4382 28.8779 37.9718 27.885 39.9774C27.2089 41.3434 25.4042 42.833 23.9119 43.2568C22.4786 43.6638 22.5146 43.6352 22.5146 44.3744C22.5146 44.9973 22.4881 45.0465 22.0821 45.1855C21.5936 45.3524 21.6387 45.3527 21.0386 45.1827ZM20.6181 41.2961C20.6572 40.7462 20.6994 40.6834 21.107 40.5693C21.3811 40.4928 21.7256 40.4928 21.9996 40.5693C22.4117 40.6847 22.451 40.7456 22.5146 41.3635C22.5779 41.9819 22.6093 42.0301 22.9264 41.9975C23.5948 41.929 24.9443 41.1612 25.5935 40.4804C26.601 39.4232 26.9636 38.5173 26.9667 37.0481C26.9682 36.3811 26.8884 35.6066 26.7895 35.3269C26.1165 33.4232 23.7239 32.8868 22.6888 34.4072C22.0721 35.3131 22.413 36.7133 23.3681 37.1979C23.7886 37.4113 24.8039 37.4082 25.2948 37.1923C25.5075 37.0986 25.5349 37.1715 25.5349 37.8289C25.5349 38.5401 25.5171 38.5771 25.1026 38.7189C24.1162 39.0563 22.6306 38.7298 22.0447 38.0463C21.8598 37.8308 21.6822 37.6543 21.6502 37.6543C21.618 37.6543 21.3757 37.8542 21.1115 38.0988C20.3462 38.807 19.2134 39.0372 18.1025 38.7107L17.5718 38.5546V37.8206C17.5718 37.168 17.5985 37.0993 17.812 37.201C17.9443 37.2638 18.4344 37.3159 18.9016 37.3163C19.6563 37.3174 19.7982 37.2729 20.1747 36.9189C21.0179 36.1259 21.017 34.7838 20.1733 34.0104C18.902 32.845 16.815 33.809 16.3322 35.7847C15.8351 37.8176 16.6665 40.0359 18.3517 41.1738C19.0342 41.6346 20.3342 42.133 20.4807 41.9899C20.5325 41.9394 20.5943 41.6272 20.6181 41.2961ZM9.68737 35.5067C11.1543 35.0008 12.4594 33.7888 12.7745 32.6398C13.031 31.7056 12.831 30.946 12.1536 30.2815C11.6301 29.7676 11.4979 29.7058 10.9242 29.7058C9.82051 29.7058 8.99659 30.3638 8.82856 31.3797C8.71343 32.0765 9.20796 32.9842 9.88074 33.3109L10.4133 33.5696L9.84873 33.9952C9.53824 34.2294 9.20129 34.4211 9.10017 34.4211C8.99882 34.4211 8.64276 34.1739 8.30848 33.8714C7.55613 33.1908 7.20519 32.3617 7.32032 31.5364L7.40344 30.9423L6.72466 30.8508C5.68382 30.7103 4.65765 29.8712 4.25448 28.8309C4.12357 28.4931 4.15713 28.4194 4.62854 28.0104C4.91348 27.7635 5.18307 27.5588 5.22775 27.5558C5.27242 27.5527 5.38066 27.7843 5.46779 28.0707C5.68205 28.7715 6.54419 29.3688 7.34143 29.3688C8.42339 29.3688 9.3342 28.4703 9.3342 27.4029C9.3342 26.2331 8.32115 25.3936 6.91269 25.396C4.36983 25.4001 2.1668 28.3079 2.61887 31.0631C2.77334 32.0041 3.07517 32.8042 3.27565 32.8042C3.34899 32.8042 3.59659 32.6498 3.8253 32.4608C4.22558 32.1303 4.25737 32.1253 4.66477 32.3322C4.89769 32.4503 5.19285 32.7621 5.32065 33.0251L5.55314 33.5035L5.04083 33.964C4.75923 34.2172 4.52874 34.4477 4.52874 34.4761C4.52874 34.6273 6.02633 35.4382 6.57175 35.5824C7.53435 35.8369 8.82056 35.8057 9.68737 35.5065V35.5067ZM37.3008 35.3059C37.7689 35.0988 38.2632 34.8085 38.3992 34.6606C38.6399 34.3994 38.6346 34.382 38.2005 34.0262C37.6835 33.6023 37.6393 33.2535 38.0396 32.7543C38.5675 32.0958 38.8151 32.0559 39.4189 32.5321L39.9581 32.9573L40.2635 32.3083C40.5147 31.7745 40.5689 31.42 40.5689 30.312C40.5689 29.1065 40.528 28.8832 40.1813 28.1902C39.599 27.0263 38.5817 26.0046 37.6733 25.6711C36.0539 25.0766 34.6695 25.4491 34.0665 26.6419C33.6393 27.4875 33.7427 28.0597 34.4481 28.7515C35.3483 29.6351 36.508 29.6074 37.3355 28.6824C37.566 28.425 37.7544 28.0649 37.7544 27.8823C37.7544 27.4517 37.8591 27.4634 38.4781 27.964C39.0631 28.4372 39.0907 28.5809 38.7288 29.2732C38.2683 30.1544 37.3066 30.783 36.3624 30.82L35.8099 30.8417L35.8972 31.4124C36.0293 32.2771 35.7346 33.0418 34.9844 33.781C34.6273 34.1331 34.2359 34.4211 34.1145 34.4211C33.9932 34.4211 33.6493 34.2281 33.3502 33.9922L32.8065 33.5635L33.1866 33.4031C33.8542 33.1216 34.2179 32.6095 34.2925 31.8443C34.3792 30.9577 34.0578 30.3242 33.3386 29.964C32.2767 29.4324 31.2723 29.7181 30.6724 30.7227C29.8471 32.1045 30.6368 33.9809 32.4927 35.0483C33.4657 35.6077 34.1507 35.7697 35.3516 35.7242C36.1962 35.6921 36.6467 35.5954 37.3008 35.3059Z" fill="#010101"/>
</svg>
