<svg width="25" height="21" viewBox="0 0 25 21" fill="none" xmlns="http://www.w3.org/2000/svg">
<path d="M1.875 3.9375V7.0625C1.875 7.60938 1.44531 8 0.9375 8C0.390625 8 0 7.60938 0 7.0625V3.9375C0 2.0625 1.52344 0.5 3.4375 0.5H21.5625C23.4375 0.5 25 2.0625 25 3.9375V7.0625C25 7.60938 24.5703 8 24.0625 8C23.5156 8 23.125 7.60938 23.125 7.0625V3.9375C23.125 3.07812 22.4219 2.375 21.5625 2.375H3.4375C2.53906 2.375 1.875 3.07812 1.875 3.9375ZM18.125 4.25H20V18C20 19.4062 18.8672 20.5 17.5 20.5H7.5C6.09375 20.5 5 19.4062 5 18V4.25H6.875V18C6.875 18.3516 7.14844 18.625 7.5 18.625H17.5C17.8125 18.625 18.125 18.3516 18.125 18V4.25ZM12.5 14.25C10.4297 14.25 8.75 12.8828 8.75 11.125C8.75 9.40625 10.4297 8 12.5 8C14.5703 8 16.25 9.40625 16.25 11.125C16.25 12.8828 14.5703 14.25 12.5 14.25Z" fill="#1C2C56"/>
</svg>
