<svg width="92" height="52" viewBox="0 0 92 52" fill="none" xmlns="http://www.w3.org/2000/svg">
<mask id="mask0_32_4850" style="mask-type:luminance" maskUnits="userSpaceOnUse" x="0" y="0" width="92" height="52">
<path d="M92 0H0.47998V52H92V0Z" fill="white"/>
</mask>
<g mask="url(#mask0_32_4850)">
<path d="M26.4147 28.7237L25.6665 30.8187C22.8402 32.4946 19.7231 33.3791 16.5228 33.3791C11.8678 33.3791 8.12723 31.8428 5.21788 28.7703C2.30852 25.6977 0.895405 21.6476 0.895405 16.6664C0.81228 13.5008 1.5604 10.3818 3.05664 7.68166C4.4282 5.16779 6.42318 3.166 8.79222 1.90907C11.286 0.605569 14.0291 -0.046177 16.7721 0.000376265C18.4763 0.000376265 20.1803 0.233142 21.8427 0.652122C23.2974 0.977995 24.669 1.49008 26.0406 2.14183L26.1652 2.3746C25.8743 3.21255 25.5834 5.30745 25.334 8.61273L25.2093 8.79895H24.2949L24.1287 8.61273L23.9209 4.79536C22.9234 3.8643 21.7596 3.21255 20.5544 2.74702C19.2244 2.23493 17.8112 2.00217 16.3981 2.00217C14.3616 1.95562 12.3666 2.51425 10.5794 3.63153C8.83379 4.74881 7.46223 6.37817 6.58943 8.37997C5.6335 10.4283 5.17632 12.9887 5.17632 15.9681C5.13475 18.7148 5.67506 21.4615 6.83881 23.8822C7.87786 26.0702 9.45722 27.8858 11.4106 29.0962C13.4887 30.3532 15.8162 30.9583 18.1853 30.9117C19.3074 30.9117 20.3881 30.7721 21.4687 30.5393C22.3831 30.3532 23.2558 30.0273 24.0871 29.6083C24.7937 29.2358 25.4587 28.7703 26.0821 28.2116L26.4147 28.7237Z" fill="#C46390"/>
<path d="M36.057 0.698242L38.4676 0.791349C40.047 0.837902 41.0861 0.884455 41.5848 0.884455C42.042 0.884455 43.8707 0.837902 47.1125 0.698242L47.2788 0.837902V1.95518L47.1125 2.09484C46.2398 2.14139 45.5332 2.18794 45.076 2.23451C44.702 2.23451 44.3695 2.37416 44.037 2.56037C43.7461 2.88625 43.6214 3.30523 43.6214 3.72421C43.5382 4.56217 43.4966 5.40012 43.4966 6.28463L43.4552 11.452V21.88V26.3026C43.4552 27.4198 43.4966 28.4906 43.5798 29.6078C43.5798 29.9803 43.7045 30.3061 43.8707 30.5854C44.0786 30.8182 44.3279 30.9579 44.5773 31.0045C45.4085 31.1907 46.2814 31.2837 47.1541 31.2837L47.3204 31.4234V32.5406L47.1541 32.7269L43.7045 32.5872C42.7901 32.5406 42.0835 32.5406 41.5433 32.5406C41.1276 32.5406 39.2989 32.5872 36.0155 32.7269L35.8493 32.5406V31.4234L36.0155 31.2837C36.8052 31.2837 37.5949 31.1907 38.4261 31.0509C38.7171 31.0045 39.008 30.9113 39.2157 30.6786C39.382 30.3992 39.5067 30.0733 39.5482 29.7475C39.6729 28.7233 39.7145 27.6526 39.6729 26.6284V21.88V11.452L39.6314 7.02949C39.6314 5.30701 39.5898 4.18974 39.5068 3.72421C39.5068 3.35178 39.382 3.0259 39.2157 2.74659C39.008 2.51382 38.7586 2.37416 38.5092 2.32761C37.678 2.18794 36.8052 2.09484 35.9323 2.09484L35.7661 1.95518V0.837902L36.057 0.698242Z" fill="#C46390"/>
<path d="M91.8751 0.745117L92.0414 0.93133V2.04861L91.8751 2.18827C91.0023 2.18827 90.1296 2.28137 89.2567 2.42103C88.9658 2.51415 88.7164 2.74691 88.5502 3.02623C88.384 3.53831 88.3008 4.09695 88.3008 4.65559C88.2592 5.447 88.2592 7.77466 88.1761 11.5455V21.9734C88.1761 23.4632 88.1761 25.1855 88.2177 27.0943C88.2592 29.003 88.3424 30.0737 88.467 30.3995C88.5917 30.7254 88.8411 30.9582 89.1321 31.0513C89.4646 31.1909 90.3789 31.2841 91.8751 31.3306L92.0414 31.4703V32.5875L91.8751 32.7738C89.7971 32.6341 87.9683 32.5875 86.3889 32.5875C85.3499 32.5875 83.5211 32.6807 81.0274 32.7738L80.8612 32.5875V31.4703L81.0274 31.2841C81.9002 31.2841 82.773 31.1909 83.6458 31.0513C83.9368 30.9582 84.2277 30.772 84.3524 30.4461C84.5186 29.934 84.6017 29.3753 84.6017 28.7702C84.6433 27.9322 84.6433 25.6512 84.6849 21.9269V5.40044L78.0349 21.6941C76.3724 25.7908 74.9178 29.6081 73.6709 33.1928H72.9228C72.2163 31.2375 71.6343 29.7012 71.1356 28.5374L61.9088 6.1453V21.8803C61.9088 23.37 61.9088 25.0459 61.9503 26.9546C61.9919 28.8632 62.0751 29.9806 62.1997 30.2599C62.3244 30.5857 62.5738 30.8186 62.8648 30.9582C63.1973 31.0978 64.1116 31.1909 65.6078 31.2375L65.774 31.4237V32.4945L65.6078 32.6807L64.3609 32.5875C63.0725 32.4945 61.9919 32.4945 61.0776 32.4945C60.662 32.4945 59.1241 32.5409 56.4641 32.6807L56.2979 32.4945V31.4237L56.4641 31.2375C57.337 31.2841 58.2097 31.1909 59.0826 31.0048C59.3735 30.9116 59.6229 30.6789 59.7891 30.3995C59.9969 29.8874 60.08 29.3289 60.0385 28.8168C60.0385 28.0253 60.08 25.7442 60.1216 21.8803V11.5455C60.1216 10.1954 60.1216 8.51951 60.08 6.56427C60.0385 4.60904 59.9554 3.49176 59.8307 3.16589C59.706 2.84001 59.4566 2.60725 59.1657 2.46758C58.8332 2.32793 57.9188 2.23482 56.4225 2.18827L56.2563 2.00205V0.93133L56.4225 0.745117C57.2954 0.838223 58.5007 0.838223 59.9969 0.838223C61.4101 0.838223 62.6569 0.79167 63.6959 0.745117C64.7766 3.67797 65.8156 6.28496 66.8132 8.65917L74.1281 26.2097L80.7365 10.1023C82.5237 5.77287 83.729 2.6538 84.3524 0.745117C85.5992 0.838223 86.8046 0.838223 88.0099 0.838223C89.0905 0.838223 90.3789 0.79167 91.8751 0.745117Z" fill="#C46390"/>
<path d="M4.1792 42.2247V41.9919L4.22076 41.9453C4.63639 41.9453 4.96889 41.9919 5.1767 41.9919L6.17419 41.9453H6.58982C6.83919 41.9453 7.13013 41.9919 7.3795 42.085C7.54574 42.1781 7.71199 42.3178 7.83668 42.504C7.96137 42.6902 8.00292 42.9229 8.00292 43.1557C8.00292 43.4816 7.87824 43.7609 7.67043 43.9937C7.42105 44.273 7.08856 44.5058 6.7145 44.5524C6.92231 44.5524 7.13013 44.5988 7.33793 44.692C7.50418 44.7386 7.62887 44.8316 7.75355 44.9247C7.87824 45.0179 7.96137 45.2041 8.04449 45.3437C8.12762 45.53 8.16918 45.7627 8.16918 45.9489C8.16918 46.1351 8.12762 46.3213 8.08605 46.5076C8.04449 46.6938 7.96137 46.9265 7.83668 47.0662C7.71199 47.2525 7.54574 47.3921 7.3795 47.5317C7.21324 47.6714 7.00543 47.7644 6.79763 47.811C6.54825 47.8576 6.34044 47.9042 6.09106 47.9042H5.55075H5.05201C4.88576 47.9042 4.67795 47.9042 4.42858 47.9507V47.811L4.47014 47.7644C4.55326 47.718 4.63639 47.6714 4.71951 47.6248C4.76107 47.3921 4.76107 47.1127 4.76107 46.88C4.76107 46.4145 4.76107 46.042 4.76107 45.8092V43.2954C4.76107 43.1091 4.76107 42.9229 4.76107 42.7833C4.76107 42.6902 4.76107 42.597 4.76107 42.504C4.76107 42.4574 4.76107 42.4108 4.71951 42.3643C4.67795 42.3178 4.67795 42.3178 4.63639 42.3178C4.59483 42.3178 4.5117 42.2712 4.47014 42.2712L4.1792 42.2247ZM5.46764 44.4592C5.59232 44.4592 5.71701 44.4592 5.88325 44.4592C6.25732 44.5058 6.63137 44.3661 6.92231 44.1333C7.13013 43.9006 7.21324 43.5746 7.21324 43.2954C7.21324 43.1091 7.17168 42.9229 7.08856 42.7367C7.00543 42.597 6.88075 42.4574 6.7145 42.4108C6.50669 42.3178 6.29888 42.2712 6.04951 42.2712C5.84169 42.2712 5.63388 42.2712 5.46764 42.3178C5.46764 42.597 5.42607 43.0161 5.42607 43.6212L5.46764 44.4592ZM5.46764 47.5317C5.63388 47.5783 5.84169 47.6248 6.04951 47.6248C6.34043 47.6248 6.58982 47.5783 6.88075 47.4386C7.047 47.2989 7.21324 47.1127 7.29637 46.88C7.3795 46.6472 7.42106 46.3679 7.42106 46.1351C7.42106 45.7627 7.33793 45.4368 7.13013 45.1575C6.92231 44.9247 6.50669 44.7851 5.84169 44.7851H5.46764V46.2283V47.5317Z" fill="#C46390"/>
<path d="M19.0997 47.9507L19.0581 47.6714L19.0997 47.6248C19.2244 47.6248 19.349 47.6248 19.4322 47.5783C19.4737 47.5783 19.5153 47.5317 19.5569 47.4851C19.64 47.2989 19.7231 47.1593 19.8062 46.9266L20.1803 45.9489L21.1778 43.3419C21.3441 42.8298 21.5518 42.3178 21.7181 41.8057H21.9675L23.5053 46.042L23.7131 46.6006C23.7962 46.7404 23.8378 46.9266 23.9209 47.1127C23.9625 47.2524 24.0041 47.3455 24.0871 47.4387C24.1287 47.4851 24.1703 47.4851 24.2118 47.5317C24.295 47.5783 24.4196 47.5783 24.5028 47.5783L24.5443 47.6248V47.8576L24.5028 47.9042C24.2534 47.8576 24.0041 47.8576 23.7962 47.8576L22.591 47.9042L22.5494 47.8576V47.6248L22.591 47.5783C22.7572 47.5783 22.9235 47.5783 23.0897 47.5317C23.1312 47.5317 23.2144 47.4387 23.1728 47.3921C23.1728 47.2989 23.1312 47.2059 23.1312 47.1593L22.674 45.8558H20.5959L20.1803 46.9266C20.1387 47.0662 20.0971 47.2059 20.0557 47.3455C20.0557 47.4386 20.0971 47.4851 20.1387 47.4851C20.305 47.5317 20.4712 47.5317 20.6375 47.5317L20.6791 47.5783V47.811L20.6375 47.8576C20.3466 47.8576 20.0557 47.811 19.8062 47.811C19.5569 47.811 19.349 47.9507 19.0997 47.9507ZM20.7622 45.5765H22.591L21.6766 43.0161L20.7622 45.5765Z" fill="#C46390"/>
<path d="M35.5171 47.9503L35.4755 47.7176L35.5171 47.671C35.6417 47.671 35.7664 47.671 35.8495 47.6244C35.9326 47.6244 35.9742 47.578 36.0157 47.5314C36.0573 47.4848 36.0573 47.3917 36.0573 47.3452C36.0573 47.2521 36.0573 47.0659 36.0989 46.74C36.1405 46.4141 36.0989 46.2279 36.0989 46.0882V42.6899C36.0989 42.5967 36.0989 42.4571 36.0157 42.364C35.9742 42.3174 35.8911 42.2708 35.8495 42.2244C35.7248 42.1778 35.5586 42.1778 35.4339 42.1778L35.3923 42.1312V41.945L35.4339 41.8984H36.0989C36.3482 41.8984 36.5561 41.8984 36.6807 41.8984L37.8445 43.6675L39.5485 46.1348C39.7564 46.4606 39.9642 46.74 40.172 46.9727V43.714C40.172 43.6209 40.172 43.3882 40.172 43.0623C40.172 42.7363 40.172 42.5036 40.1304 42.4105C40.1304 42.364 40.0889 42.2708 40.0473 42.2244C40.0057 42.1778 39.9226 42.1778 39.8811 42.1312C39.7564 42.1312 39.6732 42.0846 39.5485 42.0846V42.2244V42.0381L39.5901 41.9915C39.798 41.9915 40.0473 41.9915 40.4214 41.9915C40.7954 41.9915 41.0032 41.9915 41.1279 41.9915L41.1695 42.0381V42.2244L41.1279 42.2708C41.0032 42.2708 40.8786 42.2708 40.7538 42.3174C40.6707 42.3174 40.6291 42.364 40.5877 42.4105C40.5461 42.4571 40.5461 42.5502 40.5461 42.5967C40.5461 42.6899 40.5461 42.8761 40.5045 43.202C40.4629 43.5278 40.5045 43.714 40.5045 43.8537V47.0193C40.5045 47.3917 40.5045 47.7641 40.5045 48.1831C40.2966 48.0901 40.0889 48.0435 39.8811 47.9969L39.6317 47.6244L38.8835 46.5072L36.4314 42.9226V46.1813C36.4314 46.321 36.4314 46.5538 36.4314 46.8797C36.4314 47.0659 36.4314 47.2986 36.473 47.4848C36.473 47.5314 36.5145 47.578 36.5145 47.6244C36.5561 47.671 36.5977 47.671 36.6392 47.7176C36.7639 47.7641 36.9302 47.7641 37.0548 47.7641L37.0964 47.8107V47.9969L37.0548 48.0435C36.847 47.9969 36.6392 47.9969 36.4314 47.9969C36.1405 47.9503 35.808 47.9503 35.5171 47.9503Z" fill="#C46390"/>
<path d="M54.0536 48.9742V48.7879V48.7415C54.3445 48.4621 54.6354 48.2294 54.9679 48.0897C54.4276 48.1362 53.9289 47.9966 53.4716 47.7173C53.0976 47.4379 52.7651 47.0655 52.5989 46.5999C52.391 46.0879 52.2664 45.5293 52.2664 44.9706C52.1833 43.3413 53.347 41.9446 54.8016 41.8516C54.8848 41.8516 54.9679 41.8516 55.051 41.8516C55.5497 41.8516 56.0069 41.9446 56.4642 42.1774C56.8798 42.4101 57.1707 42.7361 57.42 43.2016C57.6695 43.6671 57.7525 44.2258 57.7525 44.7844C57.7525 45.0638 57.711 45.343 57.6695 45.6223C57.6279 45.9482 57.5032 46.2276 57.3785 46.5069C57.2539 46.7861 57.046 47.0655 56.8382 47.2982C56.5889 47.531 56.3394 47.7173 56.0485 47.8569C55.7576 47.9966 55.4251 48.0897 55.051 48.1362C55.342 48.1828 55.5913 48.2758 55.8407 48.4156C56.1317 48.5552 56.4642 48.6949 56.7966 48.7879C56.9629 48.8345 57.1707 48.8811 57.3369 48.8811C57.4616 48.8811 57.5863 48.8345 57.711 48.7879L57.7525 48.8345V48.9742V49.0207C57.711 49.0673 57.6279 49.1138 57.5863 49.1604C57.42 49.2535 57.2954 49.3466 57.1707 49.4862C57.0876 49.4862 57.0044 49.4862 56.9214 49.4398C56.7966 49.4398 56.6303 49.3932 56.5057 49.3466C56.381 49.3 56.1732 49.207 55.8823 49.1138C55.5083 48.9277 55.1342 48.8345 54.7601 48.7415C54.677 48.7415 54.6354 48.7415 54.5523 48.7879C54.4691 48.8345 54.3861 48.8811 54.3029 48.9277L54.0536 48.9742ZM53.0144 44.7379C53.0144 45.1102 53.056 45.4827 53.1807 45.8551C53.2639 46.2276 53.3885 46.5534 53.5964 46.8793C53.7626 47.1586 54.012 47.3448 54.2613 47.531C54.5107 47.6707 54.8016 47.7173 55.0926 47.7173C55.4251 47.7173 55.7992 47.6241 56.0901 47.4379C56.381 47.2052 56.6303 46.8793 56.7551 46.5069C56.9214 46.0414 57.0044 45.5758 56.9628 45.1102C56.9628 44.5981 56.8798 44.0396 56.7135 43.5741C56.5889 43.155 56.2979 42.8292 55.9654 42.5499C55.6329 42.3171 55.2588 42.224 54.8848 42.224C54.3445 42.1774 53.8457 42.4101 53.5132 42.8757C53.1392 43.3878 52.9314 44.086 53.0144 44.7379Z" fill="#C46390"/>
<path d="M68.6011 41.9919H69.6817L70.7207 41.9453L70.7623 41.9919V42.2247L70.7207 42.2712C70.5545 42.2712 70.4298 42.2712 70.3467 42.2712C70.2635 42.2712 70.2221 42.3178 70.1389 42.3178C70.0973 42.3643 70.0558 42.4574 70.0558 42.5506C70.0558 42.6902 70.0142 42.8764 70.0142 43.0161V45.3437C70.0142 45.8092 70.0142 46.1351 70.0142 46.3213C70.0142 46.5076 70.0558 46.6938 70.0973 46.8334C70.1389 46.9731 70.222 47.1127 70.3467 47.2059C70.4714 47.3455 70.6376 47.3921 70.8039 47.4386C71.0117 47.4852 71.2611 47.5317 71.4689 47.5317C71.7182 47.5317 71.9677 47.4852 72.217 47.3921C72.4248 47.3455 72.5911 47.2059 72.7573 47.0196C72.882 46.8334 72.9651 46.6006 73.0067 46.3679C73.0483 45.9955 73.0483 45.623 73.0483 45.2506V43.9937C73.0483 43.7609 73.0483 43.4816 73.0483 43.0627C73.0483 42.8299 73.0483 42.597 73.0067 42.4108C72.9651 42.3643 72.9235 42.3178 72.882 42.2712C72.7158 42.2247 72.5495 42.2247 72.3833 42.2247L72.3417 42.1781V41.9919L72.3833 41.9453C72.7573 41.9453 73.0483 41.9919 73.256 41.9919C73.4639 41.9919 73.7133 41.9919 74.1289 41.9453L74.1705 41.9919V42.1781L74.1289 42.2247C73.9626 42.2247 73.838 42.2247 73.6717 42.2712C73.6301 42.2712 73.547 42.3178 73.5054 42.3643C73.4639 42.4108 73.4639 42.4574 73.4639 42.504C73.4639 42.6902 73.4223 42.8764 73.4223 43.0627V43.9937V45.2971C73.4223 45.7162 73.4223 46.0886 73.3808 46.5076C73.3392 46.7868 73.2976 47.0196 73.1729 47.2525C73.0483 47.4386 72.9236 47.5783 72.7573 47.718C72.5911 47.8576 72.3417 47.9507 72.1338 47.9972C71.8845 48.0438 71.6352 48.0904 71.3441 48.0904C71.0532 48.0904 70.7207 48.0438 70.4714 47.9507C70.2635 47.9042 70.0558 47.7644 69.848 47.5783C69.7233 47.4386 69.5985 47.2989 69.5154 47.1127C69.4324 46.9265 69.3908 46.7404 69.3908 46.5541C69.3908 46.3213 69.3492 45.9955 69.3492 45.5765V43.2023C69.3492 42.8764 69.3492 42.6902 69.3076 42.597C69.3076 42.5506 69.2661 42.4574 69.2661 42.4108C69.2245 42.3643 69.1829 42.3643 69.1413 42.3178C68.9751 42.2712 68.8088 42.2712 68.6426 42.2712L68.6011 42.2247V41.9919Z" fill="#C46390"/>
<path d="M85.1422 41.9919L86.7631 41.9453C87.5528 41.9453 88.2594 41.9453 88.8828 41.9453V41.9919C88.7997 42.4108 88.7581 42.8299 88.7581 43.2488V43.2954H88.5919L88.5503 43.2488C88.5503 43.2488 88.5503 43.2023 88.5503 43.1557C88.5503 42.9229 88.5503 42.6902 88.5087 42.4574C88.3009 42.3643 88.0932 42.3178 87.8853 42.3178C87.636 42.3178 87.4281 42.2712 87.2619 42.2712C87.0956 42.2712 86.8462 42.2712 86.5138 42.3178V42.9695V43.7609V44.692C86.7631 44.692 87.0125 44.692 87.2203 44.692C87.3866 44.692 87.5944 44.692 87.7606 44.692C87.8437 44.692 87.9269 44.692 88.01 44.6454C88.0516 44.5988 88.0516 44.5988 88.0516 44.5524C88.0516 44.4592 88.0932 44.3661 88.0932 44.273V43.9937L88.1346 43.9471H88.3009L88.3425 43.9937C88.3425 44.3195 88.3425 44.5988 88.3009 44.9247L88.3425 45.8558L88.3009 45.9024H88.1762L88.1346 45.8558L88.0932 45.623C88.0932 45.4834 88.0516 45.3903 88.0516 45.2506C88.0516 45.2041 88.01 45.1575 87.9684 45.1575C87.8853 45.1109 87.8022 45.1109 87.7191 45.0644C87.5944 45.0644 87.3866 45.0644 87.1372 45.0644C87.0125 45.0644 86.7631 45.0644 86.5138 45.0644C86.5138 45.2971 86.5138 45.7162 86.5138 46.2747C86.5138 46.8334 86.5138 47.2989 86.5138 47.5783H87.1787C87.7607 47.5783 88.1346 47.5783 88.2594 47.5783C88.3841 47.5783 88.5503 47.5317 88.675 47.4386C88.7166 47.3921 88.7166 47.2059 88.7997 46.9731C88.8828 46.7404 88.8828 46.6006 88.8828 46.5076L88.9243 46.461H89.0906L89.1322 46.5076C89.0906 46.6938 89.0906 46.9266 89.0491 47.1593C89.0075 47.4852 89.0075 47.718 89.0075 47.9507L88.9659 47.9972C88.5087 47.9972 87.8853 47.9507 87.1372 47.9507H86.1397C85.8904 47.9507 85.6825 47.9507 85.4331 47.9972L85.3916 47.9507V47.811L85.4331 47.7645C85.5163 47.718 85.5993 47.6714 85.6825 47.6248C85.7241 47.3921 85.7241 47.1127 85.7241 46.88C85.7241 46.4145 85.7241 46.042 85.7241 45.8092V43.2954C85.7241 43.1091 85.7241 42.9229 85.7241 42.7833C85.7241 42.6902 85.7241 42.597 85.6825 42.504C85.6825 42.4574 85.6409 42.4108 85.6409 42.3643C85.5993 42.3178 85.5993 42.3178 85.5579 42.3178C85.5163 42.3178 85.4331 42.2712 85.3916 42.2712H85.1007L85.0591 42.2247L85.1422 41.9919Z" fill="#C46390"/>
<path d="M0.47998 37.3359H92" stroke="#C46390" stroke-miterlimit="10"/>
<path d="M0.47998 51.7678H92" stroke="#C46390" stroke-miterlimit="10"/>
</g>
</svg>
