<svg width="31" height="28" viewBox="0 0 31 28" fill="none" xmlns="http://www.w3.org/2000/svg">
<path d="M15.6875 0.375C16.373 0.375 16.9531 0.955078 16.9531 1.64062V2.95898C23.4395 3.48633 28.8711 7.86328 30.4004 13.7695C30.4004 13.8223 30.4531 13.9277 30.4531 13.9805C30.5586 14.2969 30.6113 14.6133 30.6641 14.9297C30.6641 15.0879 30.7168 15.2988 30.7168 15.457C30.8223 16.3008 29.8203 16.7754 29.293 16.1426C29.1348 15.9844 28.9766 15.8789 28.8184 15.7207C28.6074 15.6152 28.4492 15.457 28.2383 15.3516H28.1855L28.1328 15.2988C27.4473 14.9824 26.6035 14.7188 25.8125 14.7188C24.1777 14.7188 22.8066 15.6152 22.1211 16.9336C22.0684 16.9336 22.0684 16.9863 22.0156 17.0391C21.9102 17.25 21.8047 17.4609 21.752 17.7246C21.6992 17.8301 21.6992 17.9883 21.6465 18.0938C21.541 18.5684 21.1719 18.9375 20.75 18.9375C20.2754 18.9375 19.9062 18.5684 19.8008 18.0938C19.748 17.9883 19.748 17.8301 19.6953 17.7246C19.6426 17.5137 19.5371 17.25 19.4316 17.0391C19.3789 16.9863 19.3789 16.9336 19.3789 16.9336C18.6406 15.6152 17.2695 14.7188 15.6875 14.7188C14.0527 14.7188 12.6816 15.6152 11.9961 16.9336C11.9434 16.9336 11.9434 16.9863 11.8906 17.0391C11.7852 17.25 11.6797 17.4609 11.627 17.7246C11.5742 17.8301 11.5742 17.9883 11.5215 18.0938C11.416 18.5684 11.0469 18.9375 10.625 18.9375C10.1504 18.9375 9.78125 18.5684 9.67578 18.0938C9.62305 17.9883 9.62305 17.8301 9.57031 17.7246C9.51758 17.5137 9.41211 17.25 9.30664 17.0391C9.25391 16.9863 9.25391 16.9336 9.25391 16.9336C8.51562 15.6152 7.14453 14.7188 5.5625 14.7188C4.71875 14.7188 3.875 14.9824 3.18945 15.2988C3.13672 15.3516 3.13672 15.3516 3.08398 15.3516C2.87305 15.457 2.71484 15.6152 2.50391 15.7207C2.3457 15.8789 2.1875 15.9844 2.0293 16.1426C1.50195 16.7754 0.5 16.3008 0.605469 15.457C0.605469 15.2988 0.658203 15.0879 0.658203 14.9297C0.710938 14.6133 0.816406 14.2969 0.869141 13.9805C0.869141 13.9277 0.921875 13.8223 0.921875 13.7695C2.45117 7.86328 7.88281 3.48633 14.4219 2.95898V1.64062C14.4219 0.955078 14.9492 0.375 15.6875 0.375ZM20.75 14.5078C21.9629 13.084 23.7559 12.1875 25.8125 12.1875C26.2344 12.1875 26.709 12.2402 27.1836 12.3457C25.1797 8.33789 20.8555 5.4375 15.6875 5.4375C10.4668 5.4375 6.14258 8.33789 4.13867 12.3457C4.61328 12.2402 5.08789 12.1875 5.5625 12.1875C7.56641 12.1875 9.35938 13.084 10.625 14.5078C11.8379 13.084 13.6309 12.1875 15.6875 12.1875C17.6914 12.1875 19.4844 13.084 20.75 14.5078ZM15.6875 16.4062C16.1094 16.4062 16.5312 16.5645 16.9531 16.7754V23.5254C16.9531 25.6875 15.2129 27.375 13.0508 27.375C11.5742 27.375 10.2559 26.584 9.57031 25.2656L9.46484 25.002C9.14844 24.3691 9.41211 23.6309 10.0449 23.3145C10.6777 22.998 11.416 23.2617 11.7324 23.8945L11.8379 24.1055C12.1016 24.5801 12.5234 24.8438 13.0508 24.8438C13.7891 24.8438 14.4219 24.2637 14.4219 23.5254V16.7754C14.791 16.5645 15.2129 16.4062 15.6875 16.4062Z" fill="#495678"/>
</svg>
