<svg width="71" height="32" viewBox="0 0 71 32" fill="none" xmlns="http://www.w3.org/2000/svg">
<path d="M59.8727 31.1889C58.0853 31.0599 56.157 30.6217 54.6268 29.9964C54.2805 29.855 54.0356 28.5693 53.8613 28.5047L53.5032 26.7831C53.4566 25.2493 53.3975 23.5546 53.3717 23.0175L53.3248 22.0407H54.607L54.7699 23.2421C55.3789 27.7304 57.8088 29.9892 62.0278 29.9892C64.8296 29.9892 66.5665 28.9641 67.4413 26.7939C67.7143 26.117 67.7563 25.7679 67.7618 24.1272C67.768 22.2599 67.7634 22.2298 67.3169 21.3388C66.5336 19.7755 65.7417 19.2571 61.7959 17.7244C60.6253 17.2697 59.2353 16.6852 58.7065 16.4252C55.2606 14.7311 53.5535 12.3276 53.5604 9.18023C53.5693 5.1536 55.8672 2.24729 59.8736 1.19526C61.2683 0.829262 64.6664 0.869157 66.1207 1.26898C67.4842 1.64365 69.2872 2.34009 69.4783 2.56645C69.5601 2.66294 69.6535 3.80257 69.6955 5.21431C69.7359 6.57748 69.7917 8.01112 69.8195 8.4001L69.8699 9.10738H68.5711L68.2859 7.6887C67.6218 4.38539 66.0631 2.64429 63.3789 2.20783C61.2061 1.8544 58.573 2.6727 57.5361 4.02308C56.7478 5.04974 56.51 5.85394 56.51 7.49074C56.51 8.79212 56.5426 8.96839 56.9176 9.69475C57.4048 10.6382 58.0971 11.2552 59.3931 11.9012C60.301 12.3537 63.3671 13.5533 63.6158 13.5533C63.8572 13.5533 66.6114 14.8929 67.3231 15.3565C69.3034 16.6461 70.4063 18.3768 70.7992 20.8111C70.9912 22.001 70.9999 22.3978 70.8586 23.5004C70.5381 25.9984 69.7917 27.5463 68.2163 28.9793C66.1971 30.8162 63.7376 31.4675 59.8727 31.1887V31.1889ZM11.1509 31.0068C6.78022 30.19 4.71366 27.9459 4.13845 23.3915C4.04955 22.6881 3.9942 18.4599 3.9942 12.3779V2.50596H0.699219V1.2937H11.5455V2.49815L9.79494 2.53588L8.04443 2.57361L8.00442 11.3305C7.95197 22.725 8.08399 24.56 9.10149 26.5881C10.1052 28.5888 12.0446 29.5853 14.9347 29.5853C18.2123 29.5853 20.0393 28.3897 21.0248 25.6001C21.6553 23.8158 21.7038 22.8731 21.7047 12.3747L21.7053 2.50618H18.4104V1.2937H26.3734V2.50618H23.3641L23.3212 13.2502C23.2787 23.8811 23.2749 24.0058 22.9727 25.0721C22.0792 28.2226 20.3127 29.9877 17.2435 30.7969C15.8099 31.1748 12.6347 31.2843 11.1512 31.0072L11.1509 31.0068ZM28.1844 30.2316L28.2269 29.6525L29.8745 29.6311L31.5221 29.6098L31.557 16.062L31.5921 2.51442L29.9096 2.47647L28.2271 2.43874L28.1849 1.86611L28.1426 1.2937H34.886C39.1504 1.2937 41.9922 1.34855 42.6168 1.44331C45.001 1.80497 46.6292 2.83228 47.5049 4.52676C48.2599 5.98815 48.4924 7.81836 48.1401 9.52802C47.7623 11.3617 46.9828 12.492 45.4201 13.4725C44.364 14.1349 43.6836 14.4092 42.3685 14.7027C41.7644 14.8374 41.219 14.9902 41.1568 15.0421C41.0945 15.0941 41.465 15.1782 41.9805 15.2292C47.284 15.755 49.607 18.0349 49.607 22.7144C49.607 25.2907 48.9836 26.937 47.438 28.4429C46.4905 29.3659 45.3406 29.979 43.7196 30.4248C42.6839 30.71 42.369 30.7228 35.3925 30.7661L28.142 30.811L28.1844 30.2316ZM40.6943 29.3841C43.038 28.7852 44.6056 27.2005 45.1263 24.9036C45.4539 23.4592 45.3419 20.8113 44.9058 19.6832C44.3755 18.3113 43.4812 17.2131 42.3912 16.595C41.3017 15.977 40.5118 15.8434 37.95 15.8434H35.5723V29.5851H37.7402C39.2189 29.5851 40.1579 29.5213 40.6943 29.3841ZM40.6867 14.3116C42.9571 13.5922 44.2813 11.3801 44.2584 8.34546C44.2344 5.18026 42.5946 2.90275 40.0808 2.54325C39.6776 2.4858 38.4983 2.45717 37.4602 2.47972L35.5723 2.5207V8.48574C35.5723 11.7667 35.6185 14.4983 35.6752 14.5559C35.8541 14.7381 39.9752 14.5371 40.6867 14.3116Z" fill="#FC0101"/>
</svg>
