<svg width="22" height="29" viewBox="0 0 22 29" fill="none" xmlns="http://www.w3.org/2000/svg">
<path d="M4.56055 3.40625L3.18945 13.5312H11.4688C11.8379 13.5312 12.207 13.7422 12.418 14.0586C12.6816 14.3223 12.7871 14.7441 12.6816 15.1133L11.4688 19.9648L17.4805 11H9.78125C9.35938 11 8.9375 10.8418 8.72656 10.4727C8.46289 10.1562 8.41016 9.68164 8.56836 9.3125L10.8359 3.40625H4.56055ZM2.08203 2.7207C2.24023 1.66602 3.13672 0.875 4.19141 0.875H11.4688C12.9453 0.875 14 2.4043 13.4199 3.77539L11.627 8.46875H18.2715C20.0117 8.46875 21.0137 10.3672 20.0645 11.791L9.51758 27.3477C9.20117 27.875 8.51562 28.0332 7.98828 27.7695C7.4082 27.5586 7.0918 26.9258 7.25 26.3457L9.83398 16.0625H2.71484C1.44922 16.0625 0.447266 14.9551 0.605469 13.6895L2.08203 2.7207Z" fill="#495678"/>
</svg>
